<svg t="1636671591815" class="icon" viewBox="0 0 1024 1024" version="1.1" xmlns="http://www.w3.org/2000/svg" p-id="9640" width="64" height="64"><path d="M917.077333 447.061333c0-0.256 0.170667-0.512 0.170667-0.768-0.085333-1.152-0.938667-2.048-1.194667-3.157333a20.992 20.992 0 0 0-2.602666-6.826667c-0.853333-1.28-2.048-2.133333-3.157334-3.2-1.194667-1.152-2.005333-2.645333-3.456-3.498666-0.64-0.384-1.408-0.256-2.090666-0.597334-0.554667-0.256-0.853333-0.853333-1.450667-1.066666l-469.333333-170.666667a21.205333 21.205333 0 0 0-27.050667 27.946667l85.333333 213.333333a21.162667 21.162667 0 0 0 11.946667 11.904l137.429333 54.4-390.826666 217.130667 105.6-105.6A21.162667 21.162667 0 0 0 362.666667 661.333333v-554.666666a21.290667 21.290667 0 0 0-13.397334-19.797334l-213.333333-85.333333A21.376 21.376 0 0 0 106.666667 21.333333v853.333334c0 0.597333 0.469333 1.066667 0.512 1.664a20.650667 20.650667 0 0 0 2.858666 9.344c0.725333 1.194667 1.92 1.92 2.858667 2.944 1.365333 1.450667 2.389333 3.242667 4.138667 4.266666l213.333333 128a21.418667 21.418667 0 0 0 22.144-0.042666l554.666667-341.333334a21.333333 21.333333 0 0 0 10.154666-18.176v-213.333333c0-0.341333-0.213333-0.597333-0.256-0.938667z" p-id="9641" data-spm-anchor-id="a313x.7781069.0.i28" class="selected" fill="#ffffff"></path></svg>